<mxfile host="app.diagrams.net" modified="2024-02-26T08:44:30.251Z" agent="Mozilla/5.0 (X11; Linux x86_64) AppleWebKit/537.36 (KHTML, like Gecko) Chrome/121.0.0.0 Safari/537.36" etag="utqXg4NPGz_1nb2uJDfh" version="23.1.6" type="github">
  <diagram name="Page-1" id="poI8-YUSSvHjqsaun8U3">
    <mxGraphModel dx="2284" dy="754" grid="1" gridSize="10" guides="1" tooltips="1" connect="1" arrows="1" fold="1" page="1" pageScale="1" pageWidth="850" pageHeight="1100" math="0" shadow="0">
      <root>
        <mxCell id="0" />
        <mxCell id="1" parent="0" />
        <mxCell id="9J75G92YeQu_UmJGajJG-2" value="DevKiKiff" style="swimlane;whiteSpace=wrap;html=1;" parent="1" vertex="1">
          <mxGeometry x="-40" y="205" width="930" height="690" as="geometry" />
        </mxCell>
        <mxCell id="6pg-_Df3VazLDQJe-FIY-1" value="Participer" style="ellipse;whiteSpace=wrap;html=1;" vertex="1" parent="9J75G92YeQu_UmJGajJG-2">
          <mxGeometry x="100" y="55" width="100" height="65" as="geometry" />
        </mxCell>
        <mxCell id="9J75G92YeQu_UmJGajJG-3" value="Dev" style="shape=umlActor;verticalLabelPosition=bottom;verticalAlign=top;html=1;outlineConnect=0;" parent="1" vertex="1">
          <mxGeometry x="-200" y="250" width="30" height="60" as="geometry" />
        </mxCell>
      </root>
    </mxGraphModel>
  </diagram>
</mxfile>
